<svg xmlns="http://www.w3.org/2000/svg" width="54.67" height="54.631" viewBox="0 0 54.67 54.631">
  <g id="Group_248" data-name="Group 248" transform="translate(-1151.787 -233.556)">
    <path id="Path_624" data-name="Path 624" d="M1151.787,256.382c.179-.219.341-.454.54-.653q3.138-3.15,6.287-6.29a3.224,3.224,0,0,1,.4-.352.725.725,0,0,1,1.014.079.751.751,0,0,1,.082,1.018,2.546,2.546,0,0,1-.352.4q-3.144,3.144-6.291,6.286c-.687.686-1.005.694-1.676.048Z" transform="translate(0 -10.055)" fill="#6d7278"/>
    <path id="Path_625" data-name="Path 625" d="M1194.252,237.6c.954.445.954.445,1.638-.238.34-.34.673-.685,1.021-1.017a2.518,2.518,0,0,1,3.969,3.065c-.025.046-.041.1-.078.187.6.181,1.192.362,1.785.538,1.464.435,2.934.851,4.389,1.314a.8.8,0,0,0,.924-.246c1.578-1.513,3.129-3.06,4.792-4.475a13.665,13.665,0,0,1,5.153-2.928,5.473,5.473,0,0,1,2.1-.215,3.182,3.182,0,0,1,2.761,3.889,11.785,11.785,0,0,1-2.032,4.59,37.274,37.274,0,0,1-5.587,6.287.807.807,0,0,0-.26.963c.6,1.913,1.158,3.84,1.731,5.762.035.117.081.232.136.386a2.737,2.737,0,0,1,1.977-.439,2.5,2.5,0,0,1,1.454,4.1c-.353.421-.764.795-1.152,1.185-.706.71-.708.708-.341,1.634a8.778,8.778,0,0,1,1.5-.255,2.3,2.3,0,0,1,2.188,1.435,2.328,2.328,0,0,1-.277,2.56,11.29,11.29,0,0,1-1.328,1.383.875.875,0,0,0-.288,1.057c.718,2.3,1.382,4.626,2.1,6.93a1.307,1.307,0,0,1-.4,1.563c-.51.441-.962.948-1.441,1.425-.742.739-1.148.712-1.758-.122l-9.611-13.124c-.336-.459-.676-.915-1.006-1.378-.391-.549-.361-1,.076-1.3.4-.275.847-.157,1.226.359q3.3,4.492,6.589,8.991l3.689,5.036c.069-.042.113-.065.154-.093a1.606,1.606,0,0,0,.6-2.108c-2.4-7.878-4.733-15.778-7.087-23.67-.054-.182-.127-.359-.2-.57l-7.678,7.026c.525.72,1.042,1.419,1.548,2.125.374.522.351.969-.048,1.271s-.865.186-1.236-.306c-.492-.652-.969-1.315-1.485-2.018l-1.254,1.08q-6.143,5.295-12.293,10.582a.569.569,0,0,0-.176.769c.671,1.7,1.3,3.417,1.988,5.112a1.167,1.167,0,0,1-.324,1.47c-.694.637-1.337,1.329-2.009,1.99a.88.88,0,0,1-1.466,0q-5.91-5.9-11.814-11.806c-.55-.55-.543-.942.012-1.5.689-.7,1.394-1.374,2.071-2.08a1.03,1.03,0,0,1,1.25-.265c1.752.687,3.514,1.351,5.268,2.035a.505.505,0,0,0,.686-.133q5.722-6.655,11.465-13.291c.079-.092.146-.194.235-.312l-6.557-4.8-13.174-9.637c-.868-.635-.9-1.025-.134-1.79.5-.5,1.027-.987,1.5-1.515a1.189,1.189,0,0,1,1.389-.333c2.378.728,4.767,1.418,7.144,2.149a.688.688,0,0,0,.831-.221c.331-.371.7-.712,1.052-1.061a2.573,2.573,0,0,1,3.342-.456,2.525,2.525,0,0,1,.8,3.307A.533.533,0,0,0,1194.252,237.6Zm-9.4,35.185c.13-.1.241-.189.349-.279,2.123-1.785,4.253-3.563,6.367-5.359,8.161-6.931,16.259-13.933,23.912-21.43a24.449,24.449,0,0,0,4.647-5.875,10.058,10.058,0,0,0,.972-2.627,1.652,1.652,0,0,0-2.021-2.058,5.517,5.517,0,0,0-1.135.282,13.361,13.361,0,0,0-4.352,2.64c-1.927,1.735-3.817,3.52-5.609,5.392-7.6,7.945-14.725,16.313-21.82,24.705-.9,1.07-1.8,2.149-2.682,3.208Zm-5.068-36.371,19.393,14.185,7.035-7.68c-.229-.079-.409-.148-.592-.2-7.879-2.347-15.764-4.674-23.63-7.065C1180.985,235.348,1180.294,235.4,1179.78,236.416Zm6.281,37.471,3.675,3.673c.359-.367.775-.754,1.14-1.185a.707.707,0,0,0,.121-.582c-.31-.887-.666-1.757-1.005-2.634-.24-.621-.479-1.243-.743-1.928ZM1185.026,267c-1.621-.622-3.157-1.215-4.7-1.793a.439.439,0,0,0-.366.08c-.467.4-.916.826-1.293,1.17l3.711,3.712Zm11.969-28.537c.7.209,1.251.38,1.807.538.092.026.256.038.288-.009a2.488,2.488,0,0,0,.543-.97c.024-.244-.272-.593-.516-.77a.8.8,0,0,0-1.016.181C1197.757,237.739,1197.43,238.06,1196.995,238.467Zm20.793,20.727c.186-.175.306-.277.414-.391a7.471,7.471,0,0,0,.779-.862.8.8,0,0,0-.164-1.1.823.823,0,0,0-1.074-.1c-.355.226-.639.469-.421.98C1217.514,258.168,1217.621,258.652,1217.788,259.194Zm-27.3-22.664,1.549.467a.535.535,0,0,0,.2.051.853.853,0,0,0,.418-.112.911.911,0,0,0,.1-1.288.863.863,0,0,0-1.24-.1C1191.178,235.823,1190.879,236.15,1190.483,236.53Zm29.261,29.25a13.1,13.1,0,0,0,1.056-1.154.822.822,0,0,0-.429-1.261,1.7,1.7,0,0,0-.935.168.524.524,0,0,0-.206.462C1219.359,264.557,1219.545,265.107,1219.745,265.78Z" transform="translate(-16.301)" fill="#6d7278"/>
    <path id="Path_626" data-name="Path 626" d="M1272.175,375.814c-.262-.182-.559-.282-.637-.471a1.438,1.438,0,0,1,.027-.8c.03-.137.188-.251.3-.364q3.2-3.206,6.412-6.407c.125-.125.262-.315.406-.327a1.642,1.642,0,0,1,.922.1.649.649,0,0,1,.158.946,2.238,2.238,0,0,1-.339.407q-3.2,3.207-6.417,6.4A4.53,4.53,0,0,1,1272.175,375.814Z" transform="translate(-78.352 -87.626)" fill="#6d7278"/>
    <path id="Path_627" data-name="Path 627" d="M1175.227,259.633a3.843,3.843,0,0,1-.422.7q-2.041,2.07-4.109,4.113a.811.811,0,1,1-1.113-1.152q2.03-2.043,4.073-4.073c.286-.285.63-.473,1-.246A2.93,2.93,0,0,1,1175.227,259.633Z" transform="translate(-11.425 -16.568)" fill="#6d7278"/>
    <path id="Path_628" data-name="Path 628" d="M1274.775,358.035a3.612,3.612,0,0,1-.412.7q-2.04,2.071-4.108,4.113a.811.811,0,1,1-1.135-1.131c1.365-1.375,2.724-2.757,4.125-4.095a1.216,1.216,0,0,1,.947-.221C1274.411,357.444,1274.571,357.8,1274.775,358.035Z" transform="translate(-76.587 -81.051)" fill="#6d7278"/>
    <path id="Path_629" data-name="Path 629" d="M1186.319,270.965c-.738-.061-1.068-.684-.765-1.194a2.635,2.635,0,0,1,.413-.483c.851-.857,1.7-1.713,2.563-2.56.445-.437.923-.474,1.266-.125s.321.8-.131,1.263c-.91.923-1.824,1.843-2.756,2.745A2.544,2.544,0,0,1,1186.319,270.965Z" transform="translate(-22.029 -21.476)" fill="#6d7278"/>
    <path id="Path_630" data-name="Path 630" d="M1265.928,349.379c-.231-.2-.572-.349-.627-.571a1.157,1.157,0,0,1,.178-.909c.539-.634,1.16-1.2,1.75-1.788.377-.377.744-.763,1.134-1.126a.8.8,0,1,1,1.143,1.119q-1.432,1.468-2.9,2.9A3.324,3.324,0,0,1,1265.928,349.379Z" transform="translate(-74.283 -72.737)" fill="#6d7278"/>
  </g>
</svg>
