<svg xmlns="http://www.w3.org/2000/svg" width="296.007" height="16.855" viewBox="0 0 296.007 16.855">
  <g id="Group_102" data-name="Group 102" transform="translate(-839.031 -1181.5)">
    <path id="logo_amex.84088b520ca1b3384cb71398095627da" d="M6.142,0,.437,12.624H7.266l.847-2.013h1.935l.847,2.013h7.517V11.089l.67,1.535H22.97l.67-1.567v1.567H39.274l1.9-1.959,1.78,1.959,8.03.017L45.263,6.349,50.986,0h-7.9L41.229,1.924,39.506,0H22.5L21.038,3.259,19.543,0H12.727V1.485L11.97,0Zm1.32,1.792h3.33l3.784,8.562V1.792h3.646L21.146,7.93,23.84,1.792h3.628v9.059H25.26l-.017-7.1-3.219,7.1H20.049l-3.237-7.1v7.1H12.269l-.861-2.031H6.756L5.9,10.85H3.462l4-9.058Zm22.026,0h8.978l2.746,2.966,2.834-2.966h2.746L42.62,6.346l4.173,4.5H43.922l-2.746-3-2.848,3H29.489V1.792ZM9.082,3.326,7.55,6.944h3.063L9.082,3.326Zm22.623.343V5.322h4.9V7.165h-4.9V8.971H37.2l2.553-2.659L37.307,3.667h-5.6Z" transform="translate(882.753 1182.904)" fill="#2478bc"/>
    <g id="logo_discover.7f05c82f07d62a0f8a69d54dbcd7c8be" transform="translate(938.747 1184.309)">
      <path id="Path_163" data-name="Path 163" d="M3.011.227H0V10.282H2.992a5.631,5.631,0,0,0,3.75-1.163A4.962,4.962,0,0,0,8.651,5.258C8.651,2.29,6.333.229,3.011.229Zm2.4,7.551a4.021,4.021,0,0,1-2.808.8H2.051V1.93H2.6a3.942,3.942,0,0,1,2.809.812,3.325,3.325,0,0,1,1.128,2.5A3.383,3.383,0,0,1,5.408,7.777ZM9.6.225h2.042V10.282H9.6V.227Zm7.055,3.856c2.332.815,3.027,1.539,3.027,3.139a3.332,3.332,0,0,1-3.627,3.3,4.135,4.135,0,0,1-3.636-1.916l1.32-1.223a2.435,2.435,0,0,0,2.236,1.343,1.47,1.47,0,0,0,1.593-1.419,1.186,1.186,0,0,0-.614-1.037A7.857,7.857,0,0,0,15.532,5.7c-1.921-.67-2.582-1.374-2.582-2.763A3.034,3.034,0,0,1,16.227.061a4.7,4.7,0,0,1,3.084,1.117L18.244,2.516a2.154,2.154,0,0,0-1.657-.809c-.885,0-1.528.479-1.528,1.11,0,.545.361.833,1.593,1.264Zm3.672,1.176A5.577,5.577,0,0,1,28.434.613V2.922A3.483,3.483,0,0,0,25.869,1.79a3.413,3.413,0,0,0-3.434,3.452,3.465,3.465,0,0,0,6,2.365v2.31a5.879,5.879,0,0,1-2.565.586,5.331,5.331,0,0,1-5.548-5.247ZM45.034,6.975,47.876.225h2.216L45.55,10.535h-1.1L40,.227h2.233l2.8,6.75Zm5.983,3.3V.227h5.811v1.7H53.067V4.161h3.618v1.7H53.068V8.577h3.76v1.705H51.018ZM64.942,3.192c0-1.882-1.35-2.966-3.715-2.966H58.184V10.282h2.055V6.238h.267l2.83,4.042h2.52l-3.3-4.238a2.7,2.7,0,0,0,2.392-2.85ZM60.834,4.849H60.24V1.812h.628c1.28,0,1.966.514,1.966,1.493,0,1.006-.687,1.548-2,1.548Z" transform="translate(0 0.001)" fill="#1a1919" fill-rule="evenodd"/>
      <path id="Path_164" data-name="Path 164" d="M31.837,5.27a5.482,5.482,0,0,1-10.953,0,5.482,5.482,0,0,1,10.954,0Z" transform="translate(8.449 0.013)" fill="#e6772f" fill-rule="evenodd"/>
    </g>
    <g id="logo_googlepay.3f786bc031b59575d24f504dfb859da0" transform="translate(1093.844 1181.5)">
      <path id="Path_165" data-name="Path 165" d="M14.069,7.957V12.9H12.524V.694h4.1a3.643,3.643,0,0,1,2.649,1.06,3.561,3.561,0,0,1,.173,4.988l-.173.174a3.68,3.68,0,0,1-2.649,1.042H14.069Zm0-5.764V6.459H16.66a2.009,2.009,0,0,0,1.527-.633A2.171,2.171,0,0,0,18.139,2.8a2.1,2.1,0,0,0-1.479-.6H14.069Zm9.877,2.083a3.827,3.827,0,0,1,2.707.926,3.306,3.306,0,0,1,.989,2.551V12.9H26.164v-1.16H26.1a2.94,2.94,0,0,1-2.553,1.431,3.285,3.285,0,0,1-2.274-.817,2.6,2.6,0,0,1-.913-2.045,2.51,2.51,0,0,1,.971-2.065,4.009,4.009,0,0,1,2.582-.768,4.615,4.615,0,0,1,2.266.506V7.627a1.84,1.84,0,0,0-.633-1.392,2.23,2.23,0,0,0-1.489-.576,2.343,2.343,0,0,0-2.044,1.11L20.644,5.9a3.724,3.724,0,0,1,3.3-1.626Zm-2,6.066a1.271,1.271,0,0,0,.508,1.023,1.861,1.861,0,0,0,1.2.407,2.43,2.43,0,0,0,1.737-.73,2.311,2.311,0,0,0,.768-1.722,3.071,3.071,0,0,0-2.016-.576,2.649,2.649,0,0,0-1.575.459,1.366,1.366,0,0,0-.624,1.138Z" transform="translate(5.067 0.281)" fill="#3c4043"/>
      <path id="Path_166" data-name="Path 166" d="M31.7,3.439,26.533,15.463H24.94l1.919-4.206L23.471,3.439h1.68l2.448,6h.028l2.391-6Z" transform="translate(9.496 1.392)" fill="#3c4043" fill-rule="evenodd"/>
      <path id="Path_167" data-name="Path 167" d="M11.554,5.511a8.729,8.729,0,0,0-.115-1.421H4.922v2.7H8.655A3.25,3.25,0,0,1,7.273,8.92v1.751H9.5a6.89,6.89,0,0,0,2.053-5.16Z" transform="translate(1.992 1.655)" fill="#4285f4" fill-rule="evenodd"/>
      <path id="Path_168" data-name="Path 168" d="M6.7,11.615a6.558,6.558,0,0,0,4.577-1.694L9.051,8.169A4.16,4.16,0,0,1,2.822,5.948H.527V7.76A6.9,6.9,0,0,0,6.7,11.615Z" transform="translate(0.214 2.407)" fill="#34a853" fill-rule="evenodd"/>
      <path id="Path_169" data-name="Path 169" d="M3.035,7.241a4.288,4.288,0,0,1,0-2.687v-1.8H.742a7.038,7.038,0,0,0,0,6.291Z" transform="translate(0 1.114)" fill="#fbbc04" fill-rule="evenodd"/>
      <path id="Path_170" data-name="Path 170" d="M6.7,2.775A3.694,3.694,0,0,1,9.349,3.828l1.976-2.006A6.615,6.615,0,0,0,6.7,0,6.9,6.9,0,0,0,.527,3.865l2.3,1.812A4.137,4.137,0,0,1,6.7,2.775Z" transform="translate(0.214 0)" fill="#ea4335" fill-rule="evenodd"/>
    </g>
    <g id="logo_mastercard.f18379cf1f27d22abd9e9cf44085d149" transform="translate(1009.611 1181.5)">
      <path id="Path_171" data-name="Path 171" d="M6.709,1.283h7.977v13.25H6.709Z" transform="translate(2.713 0.519)" fill="#f26122"/>
      <path id="Path_172" data-name="Path 172" d="M13.377,15.053a8.131,8.131,0,0,1-5.1,1.8A8.347,8.347,0,0,1,0,8.427,8.349,8.349,0,0,1,8.274,0a8.128,8.128,0,0,1,5.1,1.8,8.541,8.541,0,0,0,0,13.251Z" transform="translate(-0.001 0)" fill="#ea1d25"/>
      <path id="Path_173" data-name="Path 173" d="M22.917,8.427a8.349,8.349,0,0,1-8.273,8.427,8.132,8.132,0,0,1-5.1-1.8A8.542,8.542,0,0,0,9.54,1.8a8.131,8.131,0,0,1,5.1-1.8,8.347,8.347,0,0,1,8.274,8.427Z" transform="translate(3.859 0)" fill="#f69e1e"/>
    </g>
    <g id="logo_paypal.faa3042fa2daf6b4a9822cc4b43e8609" transform="translate(1041.396 1182.904)">
      <path id="Path_174" data-name="Path 174" d="M37.543.26a.309.309,0,0,1,.3-.26h1.7a.307.307,0,0,1,.3.355L38.362,9.816a.513.513,0,0,1-.506.434H36.333a.308.308,0,0,1-.3-.355L37.543.26ZM35.459,3.413a.309.309,0,0,1,.3.355l-.955,6.049a.513.513,0,0,1-.507.433H32.71a.308.308,0,0,1-.3-.357l.079-.492a3.382,3.382,0,0,1-2.447,1.011,2.764,2.764,0,0,1-2.225-.9A3.322,3.322,0,0,1,27.157,6.8,4.061,4.061,0,0,1,31.1,3.247a2.518,2.518,0,0,1,2.087.74l.124.18.077-.494a.309.309,0,0,1,.3-.26h1.767ZM33,6.854a1.526,1.526,0,0,0-.3-1.25,1.489,1.489,0,0,0-1.18-.482,1.979,1.979,0,0,0-1.98,1.7,1.507,1.507,0,0,0,.278,1.242A1.494,1.494,0,0,0,31,8.541,1.971,1.971,0,0,0,33,6.853ZM24.429,0A3.425,3.425,0,0,1,27.12.942a2.845,2.845,0,0,1,.471,2.382c-.367,2.332-1.77,3.507-4.2,3.507H22.223a.513.513,0,0,0-.506.433l-.423,2.683a.36.36,0,0,1-.355.3H19.045a.308.308,0,0,1-.3-.355L20.234.433A.513.513,0,0,1,20.739,0h3.691m.424,3.455a1.234,1.234,0,0,0-.178-1.028c-.324-.379-.955-.379-1.619-.379H22.8a.306.306,0,0,0-.3.258l-.39,2.473h.556C23.643,4.78,24.654,4.78,24.855,3.455Z" transform="translate(7.58 0)" fill="#0079c1" fill-rule="evenodd"/>
      <path id="Path_175" data-name="Path 175" d="M26.132,3.413a.308.308,0,0,1,.251.483l-5.9,8.526a.515.515,0,0,1-.421.219H18.282a.308.308,0,0,1-.25-.485l1.839-2.6L17.915,3.82a.309.309,0,0,1,.291-.407h1.746a.516.516,0,0,1,.492.365l1.038,3.469,2.45-3.61a.511.511,0,0,1,.424-.225h1.777m-9.411,0a.307.307,0,0,1,.3.355l-.955,6.049a.513.513,0,0,1-.506.433H13.972a.309.309,0,0,1-.3-.357l.08-.492A3.382,3.382,0,0,1,11.3,10.413a2.763,2.763,0,0,1-2.225-.9A3.333,3.333,0,0,1,8.416,6.8a4.066,4.066,0,0,1,3.945-3.554,2.519,2.519,0,0,1,2.089.74l.122.18.079-.494a.306.306,0,0,1,.3-.26h1.767ZM14.259,6.854a1.521,1.521,0,0,0-.3-1.25,1.483,1.483,0,0,0-1.177-.482,1.977,1.977,0,0,0-1.98,1.7,1.492,1.492,0,0,0,.277,1.242,1.494,1.494,0,0,0,1.187.478,1.971,1.971,0,0,0,1.994-1.688ZM5.691,0A3.425,3.425,0,0,1,8.382.942a2.85,2.85,0,0,1,.471,2.382c-.367,2.332-1.77,3.507-4.2,3.507H3.483a.513.513,0,0,0-.506.433l-.4,2.553a.513.513,0,0,1-.507.433H.308A.306.306,0,0,1,0,9.9L1.5.433A.513.513,0,0,1,2,0H5.693Zm.427,3.455A1.239,1.239,0,0,0,5.94,2.427c-.324-.379-.955-.379-1.619-.379H4.065a.306.306,0,0,0-.3.258L3.368,4.78h.559C4.9,4.78,5.917,4.78,6.118,3.455Z" transform="translate(0 0)" fill="#00457c" fill-rule="evenodd"/>
    </g>
    <path id="logo_visa.0adea522bb26bd90821a8fade4911913" d="M28.895,8.464C28.9,6.533,27.3,5.693,26.024,5.023c-.858-.452-1.572-.827-1.56-1.4.01-.44.428-.907,1.341-1.025a5.968,5.968,0,0,1,3.12.544L29.481.544A8.5,8.5,0,0,0,26.521,0C23.395,0,21.2,1.662,21.174,4.041c-.02,1.76,1.572,2.743,2.77,3.329,1.233.6,1.646.983,1.642,1.52,0,.822-.985,1.181-1.893,1.2a6.561,6.561,0,0,1-3.184-.743l-.065-.029-.572,2.678a9.59,9.59,0,0,0,3.517.649c3.325,0,5.5-1.642,5.509-4.183l0,.006ZM15.792.229,10.667,12.457H7.322L4.8,2.7a1.344,1.344,0,0,0-.753-1.074A13.165,13.165,0,0,0,.926.583L1,.218H6.384a1.472,1.472,0,0,1,1.45,1.247L9.165,8.533,12.456.212l3.336.017ZM40.077,12.444H37.152l-.382-1.817H32.712l-.66,1.827H28.731L33.477,1.124A1.447,1.447,0,0,1,34.824.218h2.7ZM33.624,8.113l1.666-4.59.949,4.6-2.615-.011ZM17.7,12.446,20.316.218H17.149L14.532,12.444H17.7Z" transform="translate(838.104 1182.904)" fill="#122d98" fill-rule="evenodd"/>
  </g>
</svg>
