<svg xmlns="http://www.w3.org/2000/svg" width="36.236" height="24.924" viewBox="0 0 36.236 24.924">
  <g id="Group_103" data-name="Group 103" transform="translate(-1325.303 -449.573)">
    <path id="Path_176" data-name="Path 176" d="M1325.3,453.048a8.106,8.106,0,0,1,.364-1.135,3.838,3.838,0,0,1,3.623-2.326c2.311-.027,4.623-.007,6.935-.007q10.6,0,21.193,0a3.944,3.944,0,0,1,4.009,3.073,4.489,4.489,0,0,1,.107,1.016q.01,8.369,0,16.738a3.957,3.957,0,0,1-4.083,4.088q-14.029,0-28.057,0a3.948,3.948,0,0,1-4.037-3.341.609.609,0,0,0-.056-.126Zm2.264,5.039v.389q0,5.928,0,11.856a1.719,1.719,0,0,0,1.911,1.9h27.884a1.72,1.72,0,0,0,1.911-1.9q0-5.928,0-11.857v-.389Zm.008-2.3h31.7c0-.669,0-1.316,0-1.963a1.737,1.737,0,0,0-1.97-1.978h-27.764c-.118,0-.236,0-.354,0a1.666,1.666,0,0,0-1.6,1.515C1327.54,454.16,1327.575,454.962,1327.575,455.786Z" transform="translate(0 0)" fill="#6d7278"/>
    <path id="Path_177" data-name="Path 177" d="M1344.087,494.452c.1,1.32-.416,1.74-1.707,1.74s-1.714-.441-1.714-1.721c0-1.3.445-1.8,1.711-1.7a.193.193,0,0,0,.036,0C1343.655,492.668,1344.191,493.183,1344.087,494.452Z" transform="translate(-9.725 -27.337)" fill="#6d7278"/>
  </g>
</svg>
