<svg xmlns="http://www.w3.org/2000/svg" width="51.512" height="51.506" viewBox="0 0 51.512 51.506">
  <g id="Group_246" data-name="Group 246" transform="translate(-1958.568 -511.32)">
    <path id="Path_601" data-name="Path 601" d="M1984.34,511.32a25.753,25.753,0,1,1-25.771,25.723A25.773,25.773,0,0,1,1984.34,511.32Zm-18.553,11.091c-2.567,2.427-5.339,9.845-5.091,13.6h11.271a52.131,52.131,0,0,1,1.3-10.621A31.292,31.292,0,0,1,1965.786,522.411Zm37.126-.029a31.917,31.917,0,0,1-7.532,3.017,52.093,52.093,0,0,1,1.3,10.6H2008A23.794,23.794,0,0,0,2002.912,522.381Zm-29.642,26.375a52.007,52.007,0,0,1-1.308-10.626H1960.7c-.272,3.694,2.5,11.116,5.086,13.607A31.219,31.219,0,0,1,1973.27,548.756Zm22.108,0a31.983,31.983,0,0,1,7.543,3.007,23.836,23.836,0,0,0,5.073-13.623h-11.312A51.9,51.9,0,0,1,1995.378,548.752Zm-12.116-12.735v-9.137l-8.008-.9a47.687,47.687,0,0,0-1.223,10.036Zm-9.233,2.113a47.366,47.366,0,0,0,1.227,10.03l8-.891V538.13Zm20.589-2.111a47.257,47.257,0,0,0-1.23-10.032l-8.008.89v9.142Zm-9.246,11.246,8.021.9a47.8,47.8,0,0,0,1.222-10.023h-9.242Zm0,13.368c.308-.111.587-.19.846-.31a7.985,7.985,0,0,0,2.8-2.293,20.052,20.052,0,0,0,3.239-6.039c.2-.554.377-1.117.578-1.714a41.884,41.884,0,0,0-7.465-.827Zm.021-47.1v11.27l7.544-.836c-.543-1.4-.978-2.635-1.5-3.836a14.714,14.714,0,0,0-3.5-5.152A5.819,5.819,0,0,0,1985.4,513.538Zm-2.134,11.142V513.555a1.527,1.527,0,0,0-.234.036c-.146.048-.291.1-.433.161a7.877,7.877,0,0,0-3.017,2.421,20.138,20.138,0,0,0-3.184,5.953c-.2.558-.38,1.127-.568,1.69A35.3,35.3,0,0,0,1983.261,524.68Zm-7.385,25.472-.1.222c.484,1.241.922,2.5,1.462,3.719a14.591,14.591,0,0,0,3.492,5.093,5.728,5.728,0,0,0,2.523,1.42V549.339Zm25.658,3.209a28.179,28.179,0,0,0-6.686-2.611,24.221,24.221,0,0,1-4.854,9.327A23.939,23.939,0,0,0,2001.535,553.361ZM1973.8,523.4a24.183,24.183,0,0,1,4.848-9.329,23.838,23.838,0,0,0-11.528,6.714A28.487,28.487,0,0,0,1973.8,523.4Zm27.732-2.615a23.874,23.874,0,0,0-11.545-6.719,24.136,24.136,0,0,1,4.866,9.336A28.7,28.7,0,0,0,2001.532,520.785Zm-22.883,39.288a24.23,24.23,0,0,1-4.855-9.329,27.936,27.936,0,0,0-6.673,2.624A23.9,23.9,0,0,0,1978.649,560.073Z" transform="translate(0)" fill="#6d7278"/>
  </g>
</svg>
