<svg xmlns="http://www.w3.org/2000/svg" width="303" height="187.396" viewBox="0 0 303 187.396">
  <g id="Group_70" data-name="Group 70" transform="translate(-613.5 -3022.83)">
    <g id="Group_69" data-name="Group 69" transform="translate(583.325 2840.598)">
      <path id="Path_120" data-name="Path 120" d="M307.851,268.219a65.643,65.643,0,0,0-12.027,9.819,136.326,136.326,0,0,0,8.461-21.8,17.06,17.06,0,0,0,5.028.747h0c5.717,0,19.488-2.861,23.847-29.365a.864.864,0,0,0-.631-.976c-6.257-1.623-11.953.262-17.429,5.825a54.644,54.644,0,0,0-7.631,10.554q1.065-5.667,1.661-11.5c3.284-4.733,6.049-14.062,5.5-23.486a35.377,35.377,0,0,0-12.517-25.587.875.875,0,0,0-.843-.166.888.888,0,0,0-.59.627,69.074,69.074,0,0,0-1.839,25.325,71.08,71.08,0,0,0,6.759,22.872c-.4,3.865-.942,7.681-1.657,11.438a26.5,26.5,0,0,0-4.384-11.82c-3.7-5.252-9.271-7.755-16.3-7.191a.859.859,0,0,0-.789.855c.008,20.717,11.168,28.9,18.409,30.818a132.952,132.952,0,0,1-8.681,22.112c.805-5.086.731-10.72-1.266-15.585-2.6-6.659-8.133-10.911-16-12.293a.878.878,0,0,0-.984.639c-5.293,20.949,3.662,34.148,11.774,38.7a132.751,132.751,0,0,1-13.979,18.388c2.591-5.464,4.339-11.961,3.409-18.189-1.017-7.826-5.9-13.921-14.116-17.62a.857.857,0,0,0-1.113.382c-11.11,20.9-4.97,38.054,2.126,45.092A132.833,132.833,0,0,1,241.7,331.814c3.371-3.857,6.257-8.611,7.153-13.725,1.362-7.029-1.042-13.584-6.942-18.961a.856.856,0,0,0-1.175.013c-15.66,14.967-15.262,31.1-11.085,39.084A133.08,133.08,0,0,1,204.674,347a26.363,26.363,0,0,0,9.092-8.914c3.284-5.567,3.205-11.733-.241-17.827a.866.866,0,0,0-1.108-.357c-18.209,8.374-22.6,21.809-21.277,29.643-3.014.411-6.053.76-9.13.967a1.786,1.786,0,0,0-.332.091,1.827,1.827,0,0,0-.336-.091c-3.076-.208-6.111-.556-9.125-.967,1.32-7.838-3.072-21.269-21.282-29.643a.867.867,0,0,0-1.109.357c-3.442,6.095-3.525,12.26-.245,17.811a26.4,26.4,0,0,0,9.1,8.93,133.226,133.226,0,0,1-24.985-8.773c4.181-7.979,4.575-24.117-11.081-39.084a.856.856,0,0,0-1.175-.013c-5.9,5.376-8.3,11.936-6.946,18.944.9,5.123,3.786,9.881,7.158,13.742a132.867,132.867,0,0,1-20.36-14.988c7.1-7.037,13.24-24.2,2.13-45.092a.862.862,0,0,0-1.113-.382c-8.216,3.7-13.1,9.794-14.116,17.607-.93,6.232.818,12.737,3.409,18.205a132.823,132.823,0,0,1-13.983-18.392c8.112-4.554,17.068-17.753,11.778-38.7a.883.883,0,0,0-.984-.639c-7.863,1.383-13.4,5.634-16,12.281-2,4.874-2.072,10.508-1.266,15.6A132.954,132.954,0,0,1,62.47,255.2c7.236-1.918,18.4-10.1,18.4-30.818a.853.853,0,0,0-.789-.855c-7.025-.585-12.6,1.939-16.287,7.182a26.568,26.568,0,0,0-4.4,11.828Q58.337,236.9,57.745,231.1a71.138,71.138,0,0,0,6.763-22.876A69.239,69.239,0,0,0,62.669,182.9a.891.891,0,0,0-1.436-.461,35.393,35.393,0,0,0-12.517,25.587c-.548,9.424,2.221,18.753,5.505,23.486.4,3.886.947,7.726,1.661,11.5a54.794,54.794,0,0,0-7.639-10.562c-5.468-5.551-11.164-7.444-17.42-5.817a.863.863,0,0,0-.635.976c4.359,26.5,18.135,29.365,23.851,29.365a17.067,17.067,0,0,0,5.032-.747,136.529,136.529,0,0,0,8.461,21.809,65.535,65.535,0,0,0-12.044-9.831c-7.685-4.525-14.44-4.949-20.85-1.436a.867.867,0,0,0-.374,1.108c9.59,21.547,21.219,26.068,29.29,26.068A20.33,20.33,0,0,0,74.63,290.7a136.685,136.685,0,0,0,13.618,18.06A79.4,79.4,0,0,0,71.4,300.893c-9.827-2.848-17.072-1.495-23.1,4.11a.86.86,0,0,0-.091,1.162C62,323.7,73.958,327.38,81.559,327.38a22.591,22.591,0,0,0,17.408-7.863,136.5,136.5,0,0,0,20.422,15.091,66.673,66.673,0,0,0-15.087-1.985l-.631.008c-8.8.257-14.8,3.508-18.359,9.931a.86.86,0,0,0,.274,1.129c9.773,6.564,18.728,9.889,26.612,9.889,11.658,0,17.977-7.245,20.032-12.123a136.582,136.582,0,0,0,25.666,9.005,55.473,55.473,0,0,0-13.236,2.458c-7.348,2.595-11.484,6.971-12.642,13.377a.866.866,0,0,0,.619.984,59.365,59.365,0,0,0,15.544,2.346c10.462,0,16.233-3.961,19.226-7.282a17,17,0,0,0,4.359-9.279c3.081.419,6.186.772,9.333.988l.125,0a1.68,1.68,0,0,0,.453-.087,1.65,1.65,0,0,0,.453.087l.125,0c3.143-.216,6.248-.569,9.333-.988a16.979,16.979,0,0,0,4.355,9.275c3,3.321,8.768,7.286,19.231,7.286h0a59.307,59.307,0,0,0,15.536-2.346.863.863,0,0,0,.619-.984c-1.154-6.406-5.289-10.782-12.65-13.381a55.5,55.5,0,0,0-13.223-2.454,136.932,136.932,0,0,0,25.662-9c2.059,4.874,8.378,12.119,20.032,12.119h0c7.888,0,16.843-3.325,26.612-9.889a.856.856,0,0,0,.274-1.129c-3.55-6.423-9.557-9.673-18.371-9.931l-.614-.008a66.678,66.678,0,0,0-15.091,1.985,136.283,136.283,0,0,0,20.422-15.091,22.591,22.591,0,0,0,17.408,7.863c7.606,0,19.563-3.678,33.355-21.215a.86.86,0,0,0-.091-1.162,20.1,20.1,0,0,0-14.091-5.53,32.16,32.16,0,0,0-9.022,1.428,79.181,79.181,0,0,0-16.839,7.855A136.234,136.234,0,0,0,288.72,290.7a20.334,20.334,0,0,0,11.081,3.255c8.067,0,19.7-4.525,29.286-26.068a.863.863,0,0,0-.374-1.108C322.308,263.257,315.561,263.681,307.851,268.219Z" transform="translate(0 0)" fill="#0091ff"/>
    </g>
    <text id="_4.95" data-name="4.95" transform="translate(765 3104)" fill="#0091ff" font-size="77" font-family="Poppins-SemiBold, Poppins" font-weight="600"><tspan x="-84" y="0">4.95</tspan></text>
  </g>
</svg>
