<svg xmlns="http://www.w3.org/2000/svg" width="51.279" height="51.504" viewBox="0 0 51.279 51.504">
  <g id="Group_249" data-name="Group 249" transform="translate(-1483.439 -246.212)">
    <path id="Path_631" data-name="Path 631" d="M1498.054,254.316c0-.991,0-1.9,0-2.8a5.053,5.053,0,0,1,5.266-5.29q5.773-.024,11.547,0a5.048,5.048,0,0,1,5.246,5.255c.008.922,0,1.844,0,2.836h.629q4.33,0,8.66,0a5.07,5.07,0,0,1,5.307,5.255c.015,3.2,0,6.392.007,9.588a5.213,5.213,0,0,1-1.625,3.849,1.229,1.229,0,0,0-.327.785c-.018,6.21-.01,12.42-.017,18.63a5,5,0,0,1-3.351,4.969,6.007,6.007,0,0,1-1.918.308q-18.383.026-36.766.009a5.053,5.053,0,0,1-5.291-5.321q-.008-9.288,0-18.576a1.022,1.022,0,0,0-.354-.847,4.756,4.756,0,0,1-1.619-3.615c-.009-3.323-.031-6.646.005-9.969a5.042,5.042,0,0,1,5.163-5.064c2.923-.009,5.846,0,8.769,0Zm6.007,23.429c.038-.224.065-.382.093-.541a2.3,2.3,0,0,1,2.2-1.99q2.749-.067,5.5,0a2.291,2.291,0,0,1,2.16,1.964c.032.175.064.351.1.52a.47.47,0,0,0,.13.006c5.487-1.706,10.977-3.4,16.457-5.129a3.32,3.32,0,0,0,2.413-3.277c.037-3.3.049-6.611,0-9.916a3.4,3.4,0,0,0-3.58-3.451q-20.429-.009-40.858,0a3.418,3.418,0,0,0-3.6,3.485c-.043,3.287-.034,6.574,0,9.861a3.4,3.4,0,0,0,2.55,3.342q2.567.807,5.138,1.6Zm16.1,18.332v-18.5c-.2.054-.353.093-.507.141-1.61.5-3.213,1.026-4.834,1.487a.867.867,0,0,0-.773.977,4.967,4.967,0,1,1-9.93-.215c0-.387-.1-.573-.494-.686-1.392-.406-2.771-.855-4.157-1.282-.478-.148-.96-.283-1.45-.426v18.509Zm-20.4-41.8h18.7c0-1.216.1-2.4-.023-3.565a3.4,3.4,0,0,0-3.6-2.887c-3.539-.01-7.079,0-10.619,0-.471,0-.946-.01-1.414.033a3.237,3.237,0,0,0-3.011,2.635A27.325,27.325,0,0,0,1499.753,254.276Zm27.276,41.772a3.508,3.508,0,0,0,4.123-3.7q.012-8.827,0-17.654c0-.171-.021-.342-.034-.551-1.208.375-2.341.758-3.492,1.071a.694.694,0,0,0-.609.817q.027,9.7.012,19.4Zm-39.973-21.912c-.012.24-.027.4-.027.562q0,8.852,0,17.7a6.441,6.441,0,0,0,.036.707,3.436,3.436,0,0,0,4.085,2.9V278.054c0-.745.017-1.49-.014-2.233a.619.619,0,0,0-.282-.475C1489.621,274.929,1488.373,274.55,1487.056,274.136Zm5.74,1.8v20.144h3.562v-17.82c0-1.222,0-1.226-1.159-1.59C1494.411,276.425,1493.619,276.189,1492.8,275.939Zm32.59,20.138V275.93c-1.046.323-2.039.662-3.051.928-.448.118-.541.329-.54.756q.021,8.953.009,17.907v.555Zm-16.3-19.294c-.8,0-1.6-.011-2.4,0-.67.013-.961.31-.969.976-.01.8-.016,1.6,0,2.4a3.366,3.366,0,0,0,6.732,0c.016-.781.009-1.562,0-2.343-.006-.733-.289-1.02-1.027-1.029C1510.644,276.775,1509.863,276.782,1509.082,276.783Z" fill="#6d7278"/>
  </g>
</svg>
