<svg xmlns="http://www.w3.org/2000/svg" width="22.573" height="28.335" viewBox="0 0 22.573 28.335">
  <g id="Group_104" data-name="Group 104" transform="translate(-1317.375 -214.074)">
    <path id="Path_178" data-name="Path 178" d="M1320.308,242.409a3.9,3.9,0,0,1-1.5-.593,3.268,3.268,0,0,1-1.429-2.759q-.01-5.615,0-11.229a3.325,3.325,0,0,1,3.2-3.335c.69-.03,1.381-.006,2.114-.006v-.306c0-1.355.019-2.711,0-4.066a5.984,5.984,0,0,1,11.821-1.371,6.773,6.773,0,0,1,.127,1.345c.016,1.355.006,2.71.006,4.066v.328h1.95a3.234,3.234,0,0,1,1.968.623,3.3,3.3,0,0,1,1.395,2.8q0,5.531,0,11.063a4.407,4.407,0,0,1-.048.632,3.305,3.305,0,0,1-2.7,2.749,1.6,1.6,0,0,0-.183.052Zm8.368-15.711h-7.8a1.139,1.139,0,0,0-1.287,1.293q0,5.449,0,10.9a1.144,1.144,0,0,0,1.3,1.308h15.544a1.144,1.144,0,0,0,1.3-1.307q0-5.435,0-10.87a1.149,1.149,0,0,0-1.314-1.322Zm3.739-2.226c0-1.608,0-3.184,0-4.759a2.728,2.728,0,0,0-.087-.572,3.718,3.718,0,0,0-4.044-2.819A3.652,3.652,0,0,0,1324.9,220c-.006,1.41,0,2.82,0,4.23,0,.079.01.158.016.238Z" transform="translate(0 0)" fill="#6d7278"/>
    <path id="Path_179" data-name="Path 179" d="M1356.695,276.58a1.966,1.966,0,0,1-.76,1.491.437.437,0,0,0-.183.393c.008.69.006,1.381,0,2.072a1.11,1.11,0,1,1-2.212,0c0-.7.006-1.4-.008-2.1a.507.507,0,0,0-.156-.34,2.048,2.048,0,0,1,1.736-3.6A2.083,2.083,0,0,1,1356.695,276.58Z" transform="translate(-25.987 -44.538)" fill="#6d7278"/>
  </g>
</svg>
