<svg xmlns="http://www.w3.org/2000/svg" width="57.749" height="57.758" viewBox="0 0 57.749 57.758">
  <g id="Group_247" data-name="Group 247" transform="translate(-1119.062 153.359)">
    <path id="Path_602" data-name="Path 602" d="M1119.062-111.223c.184-1.048.3-2.112.562-3.141a14.071,14.071,0,0,1,11.271-10.18,13.769,13.769,0,0,1,13.858,5.741,13.566,13.566,0,0,1,2.543,9.906,21.947,21.947,0,0,1-3.08,8.631c-.316.545-.771.7-1.221.444a.856.856,0,0,1-.246-1.272,22.754,22.754,0,0,0,2.431-5.675c1.307-5.178.2-9.692-3.849-13.3a12.419,12.419,0,0,0-17.157.939c-3.322,3.665-4.074,7.908-2.794,12.591a24.476,24.476,0,0,0,3.771,7.575,47.82,47.82,0,0,0,8.119,8.777c.952-.883,1.954-1.705,2.827-2.647,1.581-1.706,3.09-3.481,4.622-5.233.429-.491.915-.606,1.319-.278s.409.837-.011,1.348c-.989,1.206-2,2.4-3,3.593-.131.157-.265.311-.4.465.823.358,1.64.669,2.412,1.067a5.47,5.47,0,0,1,1.264.928,2.616,2.616,0,0,1-.051,4.055,8.622,8.622,0,0,1-4.139,1.925c-1.15.259-2.327.393-3.493.584h-2.82c-1.145-.19-2.3-.326-3.431-.584a8.642,8.642,0,0,1-4.137-1.922,2.606,2.606,0,0,1-.059-4.051,5.474,5.474,0,0,1,1.26-.931c.774-.4,1.593-.712,2.423-1.074-.126-.149-.262-.3-.388-.459-1.444-1.823-2.984-3.581-4.307-5.487a22,22,0,0,1-3.825-9.047c-.117-.717-.19-1.441-.283-2.161Zm14.416,25.169c.687-.06,1.8-.1,2.892-.265a9.82,9.82,0,0,0,4.417-1.555c1.014-.736,1.06-1.527-.024-2.157a24.93,24.93,0,0,0-3.137-1.332.681.681,0,0,0-.794.2c-.936.869-1.9,1.713-2.862,2.548a.93.93,0,0,1-1.446,0c-.623-.514-1.241-1.035-1.84-1.578-1.575-1.425-1.583-1.459-3.582-.592a7.543,7.543,0,0,0-1.831,1.168c-.492.415-.466.862,0,1.317a5.079,5.079,0,0,0,1.218.886A16.317,16.317,0,0,0,1133.478-86.055Z" transform="translate(0 -11.222)" fill="#6d7278"/>
    <path id="Path_603" data-name="Path 603" d="M1193.138-128.8c.637.3,1.207.536,1.744.832a4.034,4.034,0,0,1,.891.68,2.206,2.206,0,0,1-.022,3.34,6.124,6.124,0,0,1-2.929,1.491,15.584,15.584,0,0,1-9.315-.337,6.233,6.233,0,0,1-1.955-1.179,2.1,2.1,0,0,1-.015-3.308,12.066,12.066,0,0,1,2.045-1.254,4.193,4.193,0,0,1,.592-.226c-.175-.2-.311-.372-.453-.531a26.116,26.116,0,0,1-5.264-8.268,14.435,14.435,0,0,1-.886-4.568.85.85,0,0,1,.8-.971.791.791,0,0,1,.871.827c.162,4.275,2.265,7.69,4.89,10.831,1.368,1.636,2.929,3.111,4.414,4.671a37.992,37.992,0,0,0,5.228-5.412,20.539,20.539,0,0,0,3.886-7.307,9.469,9.469,0,0,0-7.25-12,9.374,9.374,0,0,0-10.067,4.889c-.1.2-.2.4-.313.6a.862.862,0,0,1-1.209.465.827.827,0,0,1-.283-1.221,15.108,15.108,0,0,1,1.633-2.616,10.556,10.556,0,0,1,10.939-3.665,10.656,10.656,0,0,1,8.372,8.5,11.928,11.928,0,0,1-.606,6.866,25.517,25.517,0,0,1-5.146,8.208C1193.542-129.252,1193.356-129.042,1193.138-128.8Zm-4.255,5.2c.562-.051,1.385-.112,2.2-.207a4.548,4.548,0,0,0,1.152-.241,14.131,14.131,0,0,0,2.178-1.006c.571-.35.571-.824,0-1.144a19.951,19.951,0,0,0-2.505-1.08c-.116-.045-.345.094-.472.2-.712.611-1.4,1.253-2.114,1.858a.881.881,0,0,1-1.355,0c-.465-.379-.915-.778-1.358-1.184-1.167-1.069-1.277-1.09-2.731-.407-.085.04-.172.076-.254.122-.466.261-1.126.431-1.113,1.058.014.6.638.827,1.122,1.063A12.565,12.565,0,0,0,1188.883-123.6Z" transform="translate(-22.935)" fill="#6d7278"/>
    <path id="Path_604" data-name="Path 604" d="M1144.575-105.916a6.258,6.258,0,0,1-6.062,6.581,6.162,6.162,0,0,1-6.231-6.042,8.261,8.261,0,0,1,.21-1.671.845.845,0,0,1,1.026-.721.853.853,0,0,1,.607,1.1,4.476,4.476,0,0,0,1,4.15,4.438,4.438,0,0,0,6.144.442,4.43,4.43,0,0,0,.683-6.12,4.426,4.426,0,0,0-5.955-1.026,1.89,1.89,0,0,1-.66.288.75.75,0,0,1-.869-.554.812.812,0,0,1,.4-1.009,5.954,5.954,0,0,1,6.548-.351A5.78,5.78,0,0,1,1144.575-105.916Z" transform="translate(-5.182 -16.344)" fill="#6d7278"/>
    <path id="Path_605" data-name="Path 605" d="M1197.532-138.288a4.961,4.961,0,0,1-4.916,4.926,4.97,4.97,0,0,1-4.917-4.929,4.937,4.937,0,0,1,4.919-4.913A4.93,4.93,0,0,1,1197.532-138.288Zm-4.909-3.219a3.219,3.219,0,0,0-3.229,3.213,3.258,3.258,0,0,0,3.219,3.24,3.246,3.246,0,0,0,3.225-3.23A3.209,3.209,0,0,0,1192.623-141.508Z" transform="translate(-26.905 -3.981)" fill="#6d7278"/>
    <path id="Path_606" data-name="Path 606" d="M1184.941-91.137a5.9,5.9,0,0,1,.733.071.676.676,0,0,1,.609.8,1.111,1.111,0,0,1-.585.753,3.4,3.4,0,0,1-1.546,0,1.1,1.1,0,0,1-.595-.75.687.687,0,0,1,.611-.8A6.923,6.923,0,0,1,1184.941-91.137Z" transform="translate(-25.276 -24.391)" fill="#6d7278"/>
    <path id="Path_607" data-name="Path 607" d="M1177.624-91.129a6.214,6.214,0,0,1,.683.063.739.739,0,0,1,.635.8.715.715,0,0,1-.643.789,7.321,7.321,0,0,1-1.395.014.738.738,0,0,1-.716-.839.753.753,0,0,1,.724-.782C1177.132-91.114,1177.357-91.113,1177.624-91.129Z" transform="translate(-22.392 -24.394)" fill="#6d7278"/>
    <path id="Path_608" data-name="Path 608" d="M1192.2-89.4a5.461,5.461,0,0,1-.655-.06.758.758,0,0,1-.653-.793.727.727,0,0,1,.645-.794,6.719,6.719,0,0,1,1.341-.029.8.8,0,0,1,.8.842.808.808,0,0,1-.787.8C1192.678-89.411,1192.472-89.411,1192.2-89.4Z" transform="translate(-28.155 -24.407)" fill="#6d7278"/>
    <path id="Path_609" data-name="Path 609" d="M1199.627-89.391a6.5,6.5,0,0,1-.724-.066.744.744,0,0,1-.642-.8.716.716,0,0,1,.64-.792,6.757,6.757,0,0,1,1.34-.025.786.786,0,0,1,.784.849.789.789,0,0,1-.781.8,5.762,5.762,0,0,1-.615,0Z" transform="translate(-31.045 -24.408)" fill="#6d7278"/>
    <path id="Path_610" data-name="Path 610" d="M1186.015-65.746a5.165,5.165,0,0,1-.672,0,.772.772,0,0,1-.709-.751.711.711,0,0,1,.584-.837,5.946,5.946,0,0,1,1.555-.022.726.726,0,0,1,.627.862.771.771,0,0,1-.713.746,4.511,4.511,0,0,1-.673.006Z" transform="translate(-25.702 -33.695)" fill="#6d7278"/>
    <path id="Path_611" data-name="Path 611" d="M1193.391-67.446a4.981,4.981,0,0,1,.618.005.794.794,0,0,1,.756.831.788.788,0,0,1-.762.826,6.749,6.749,0,0,1-1.234.007.8.8,0,0,1-.784-.8.832.832,0,0,1,.789-.862A5.356,5.356,0,0,1,1193.391-67.446Z" transform="translate(-28.585 -33.674)" fill="#6d7278"/>
    <path id="Path_612" data-name="Path 612" d="M1170.774-105.89a2.646,2.646,0,0,1-1.47,1.627.788.788,0,0,1-.84-1.132,4.143,4.143,0,0,1,1.108-1.231A.793.793,0,0,1,1170.774-105.89Z" transform="translate(-19.326 -18.267)" fill="#6d7278"/>
    <path id="Path_613" data-name="Path 613" d="M1212.624-76a11.742,11.742,0,0,1-.349,1.167.754.754,0,0,1-.967.461.715.715,0,0,1-.6-.826,7,7,0,0,1,.342-1.353.742.742,0,0,1,.944-.5C1212.453-76.942,1212.668-76.611,1212.624-76Z" transform="translate(-35.921 -29.898)" fill="#6d7278"/>
    <path id="Path_614" data-name="Path 614" d="M1175.522-107.421a.847.847,0,0,1-1-.749.825.825,0,0,1,.843-.913,5.789,5.789,0,0,1,1.173-.036.792.792,0,0,1,.747.885.8.8,0,0,1-.815.767C1176.156-107.448,1175.839-107.436,1175.522-107.421Z" transform="translate(-21.74 -17.335)" fill="#6d7278"/>
    <path id="Path_615" data-name="Path 615" d="M1168.465-98.689c0,.216.009.366,0,.515a.765.765,0,0,1-.685.767.713.713,0,0,1-.886-.508,4.478,4.478,0,0,1-.115-1.6.974.974,0,0,1,.718-.606,1.117,1.117,0,0,1,.8.514A2.356,2.356,0,0,1,1168.465-98.689Z" transform="translate(-18.692 -20.869)" fill="#6d7278"/>
    <path id="Path_616" data-name="Path 616" d="M1171.375-91.208c-.643.015-1.82-.887-1.832-1.346a1.1,1.1,0,0,1,.315-.814.983.983,0,0,1,.861-.061,3.382,3.382,0,0,1,1.088.862,1.019,1.019,0,0,1,.122.863C1171.836-91.46,1171.5-91.311,1171.375-91.208Z" transform="translate(-19.788 -23.464)" fill="#6d7278"/>
    <path id="Path_617" data-name="Path 617" d="M1200.478-65.831c-.69.021-1.091-.277-1.119-.8-.028-.538.31-.843.981-.89.3-.021.6-.069.894-.064a.816.816,0,0,1,.88.761.811.811,0,0,1-.783.908C1201.035-65.874,1200.735-65.856,1200.478-65.831Z" transform="translate(-31.475 -33.623)" fill="#6d7278"/>
    <path id="Path_618" data-name="Path 618" d="M1163.979-67.289a5.49,5.49,0,0,1,.617,0,.757.757,0,0,1,.725.728.723.723,0,0,1-.612.869,5.915,5.915,0,0,1-1.448.032.75.75,0,0,1-.7-.86.779.779,0,0,1,.805-.776c.2-.012.411,0,.618,0Z" transform="translate(-17.048 -33.736)" fill="#6d7278"/>
    <path id="Path_619" data-name="Path 619" d="M1207.971-88.157a.834.834,0,0,1-1.167.815,4.009,4.009,0,0,1-1.144-.793.978.978,0,0,1-.175-.884c.128-.247.624-.555.806-.477a8.412,8.412,0,0,1,1.564,1.014C1207.951-88.413,1207.952-88.213,1207.971-88.157Z" transform="translate(-33.859 -25.029)" fill="#6d7278"/>
    <path id="Path_620" data-name="Path 620" d="M1178.656-65.719c-.187,0-.375.012-.561,0a.773.773,0,0,1-.806-.767.764.764,0,0,1,.744-.88,5.916,5.916,0,0,1,1.283,0,.76.76,0,0,1,.728.839.8.8,0,0,1-.828.807C1179.03-65.707,1178.842-65.72,1178.656-65.719Z" transform="translate(-22.823 -33.694)" fill="#6d7278"/>
    <path id="Path_621" data-name="Path 621" d="M1171.391-67.376a5.219,5.219,0,0,1,.666.062.754.754,0,0,1,.634.809.731.731,0,0,1-.666.779,7.647,7.647,0,0,1-1.4.016.737.737,0,0,1-.713-.793.774.774,0,0,1,.743-.831C1170.881-67.362,1171.107-67.36,1171.391-67.376Z" transform="translate(-19.934 -33.705)" fill="#6d7278"/>
    <path id="Path_622" data-name="Path 622" d="M1212.468-82.25c-.244.243-.448.609-.72.669a1.05,1.05,0,0,1-.9-.311,3.153,3.153,0,0,1-.512-1.4,1,1,0,0,1,.483-.814.979.979,0,0,1,.917.219A8.933,8.933,0,0,1,1212.468-82.25Z" transform="translate(-35.777 -27.131)" fill="#6d7278"/>
    <path id="Path_623" data-name="Path 623" d="M1208.793-69.784a1.554,1.554,0,0,1-.26.485,6.582,6.582,0,0,1-1,.81.775.775,0,0,1-1.1-.2.733.733,0,0,1,.063-1.062,6.3,6.3,0,0,1,1.042-.846A.84.84,0,0,1,1208.793-69.784Z" transform="translate(-34.172 -32.395)" fill="#6d7278"/>
  </g>
</svg>
