<svg xmlns="http://www.w3.org/2000/svg" width="352.63" height="435.909" viewBox="0 0 352.63 435.909">
  <g id="Group_2293" data-name="Group 2293" transform="translate(-784 -322)">
    <path id="Path_190" data-name="Path 190" d="M961.128,392.225a28.958,28.958,0,1,0,28.959,28.958A28.956,28.956,0,0,0,961.128,392.225Z" fill="#fff"/>
    <path id="Path_191" data-name="Path 191" d="M961.128,322a99.01,99.01,0,0,0-28.958,4.323v33.353a68.014,68.014,0,1,1-39.1,61.518V349.158a98.808,98.808,0,0,0-31.135,72.026c0,76.256,99.193,169.419,99.193,169.419s99.192-97.018,99.192-169.419A99.19,99.19,0,0,0,961.128,322Z" fill="#fff"/>
    <path id="Path_192" data-name="Path 192" d="M834.03,721.124c0,10.313-7.85,17.685-18.253,17.685H784v-65.26h29.6c9.645,0,17.025,7,17.025,16.457,0,6.334-3.311,11.82-7.849,14.184C829.393,706.273,834.03,713.176,834.03,721.124Zm-39.157-37.452v16.646h15.979a8.2,8.2,0,0,0,8.228-8.327,8.079,8.079,0,0,0-8.228-8.319ZM822.4,719.23a9.129,9.129,0,0,0-9.267-9.365h-18.26v18.821h18.252A9.213,9.213,0,0,0,822.4,719.23Z" fill="#fff"/>
    <path id="Path_193" data-name="Path 193" d="M838.28,714.691c0-14.373,11.062-25.246,25.822-25.246,14.662,0,25.823,10.881,25.823,25.246s-11.161,25.254-25.823,25.254C849.342,739.937,838.28,729.064,838.28,714.691Zm40.665,0a14.9,14.9,0,1,0-14.851,15.04A14.62,14.62,0,0,0,878.945,714.691Z" fill="#fff"/>
    <path id="Path_194" data-name="Path 194" d="M943.539,708.448v30.36H932.947v-26.86c0-7.372-4.728-12.289-12.009-12.289-7.661,0-12.767,5.008-12.767,12.487v26.67H897.578V690.582h10.593v6.243c3.879-4.826,9.455-7.38,16.267-7.38C935.879,689.437,943.539,697.007,943.539,708.448Z" fill="#fff"/>
    <path id="Path_195" data-name="Path 195" d="M949.583,732.565l5.486-7.471a20.209,20.209,0,0,0,14.373,5.676c5.387,0,9.554-1.9,9.554-5.3,0-3.78-4.727-5.016-10.4-6.334-7.759-1.795-17.494-4.258-17.494-14.851,0-9.933,8.8-14.85,19.2-14.85a28.479,28.479,0,0,1,18.344,6.432l-5.577,7.471a19.067,19.067,0,0,0-12.577-4.728c-4.728,0-8.608,1.606-8.608,4.918,0,3.788,4.638,4.917,10.5,6.243,7.751,1.705,17.4,4.16,17.4,14.661,0,10.025-8.888,15.51-20.147,15.51A29.715,29.715,0,0,1,949.583,732.565Z" fill="#fff"/>
    <path id="Path_196" data-name="Path 196" d="M1011.15,700.219V723.01c0,4.539,2.55,6.713,7,6.713a14.275,14.275,0,0,0,6.62-1.705v9.934a18.537,18.537,0,0,1-8.8,1.985c-10.4,0-15.41-5.865-15.41-15.23V700.219h-8.128v-9.645h8.128V678.087h10.59v12.487h13.62v9.645Z" fill="#fff"/>
    <path id="Path_197" data-name="Path 197" d="M1079.33,690.574v48.234h-10.59v-6.9a21.036,21.036,0,0,1-16.93,8.039c-13.61,0-23.74-10.873-23.74-25.254s10.12-25.246,23.74-25.246a21.036,21.036,0,0,1,16.93,8.039v-6.9h10.59Zm-10.59,24.117a14.9,14.9,0,1,0-14.85,15.04A14.624,14.624,0,0,0,1068.74,714.691Z" fill="#fff"/>
    <path id="Path_198" data-name="Path 198" d="M1136.63,690.574l-24.68,57.4c-2.65,6.243-7.94,9.933-13.81,9.933a19.184,19.184,0,0,1-12.01-4.728l4.26-8.228a8.635,8.635,0,0,0,6.06,2.743c2.36,0,4.44-1.228,5.76-4.069l2.56-5.4-20.15-47.667h12.11l13.99,35.18,14.09-35.18h11.82Z" fill="#fff"/>
    <path id="Path_199" data-name="Path 199" d="M874.219,625.329l-8.264,29.58h-6.992l-5.552-21.062L847.6,654.909l-6.95.043-7.967-29.623h6.357l5.212,22.969,6.018-22.969h6.611l5.679,22.842,5.255-22.842Zm25.7,17.333a14,14,0,0,1-.17,2.288H882.585a5.835,5.835,0,0,0,1.78,3.984,5.489,5.489,0,0,0,3.856,1.441,4.844,4.844,0,0,0,4.7-2.84h6.4a10.794,10.794,0,0,1-3.9,5.594,11.458,11.458,0,0,1-7.077,2.162,12.5,12.5,0,0,1-6.1-1.484,10.912,10.912,0,0,1-4.2-4.28,14.457,14.457,0,0,1,0-12.756,10.353,10.353,0,0,1,4.153-4.238,12.453,12.453,0,0,1,6.145-1.483,12.22,12.22,0,0,1,5.976,1.441,9.942,9.942,0,0,1,4.11,4.111A12.11,12.11,0,0,1,899.918,642.662Zm-6.145-1.7a4.645,4.645,0,0,0-1.653-3.645,5.8,5.8,0,0,0-3.941-1.4,5.415,5.415,0,0,0-3.73,1.356,5.832,5.832,0,0,0-1.822,3.687Zm16.408-17.418v31.36h-5.933v-31.36Zm4.336,19.621A13.054,13.054,0,0,1,916,636.814a10.423,10.423,0,0,1,4.111-4.238,11.767,11.767,0,0,1,6.018-1.526,11.4,11.4,0,0,1,7.2,2.2,10.479,10.479,0,0,1,3.857,6.1h-6.4a4.527,4.527,0,0,0-1.737-2.373,4.808,4.808,0,0,0-2.967-.89,4.869,4.869,0,0,0-4.025,1.865,8.066,8.066,0,0,0-1.484,5.212,8.176,8.176,0,0,0,1.484,5.213,4.913,4.913,0,0,0,4.025,1.822,4.5,4.5,0,0,0,4.7-3.221h6.4a10.835,10.835,0,0,1-3.857,6.061,11.365,11.365,0,0,1-7.2,2.246,12.029,12.029,0,0,1-6.018-1.484A10.783,10.783,0,0,1,916,649.57,13.307,13.307,0,0,1,914.517,643.17Zm37.444,12.121a12.5,12.5,0,0,1-6.1-1.484,11.122,11.122,0,0,1-4.281-4.28,12.9,12.9,0,0,1-1.525-6.357,12.615,12.615,0,0,1,1.568-6.356,11.03,11.03,0,0,1,4.365-4.238,13.134,13.134,0,0,1,12.289,0,10.749,10.749,0,0,1,4.323,4.238,12.355,12.355,0,0,1,1.61,6.356,12.12,12.12,0,0,1-1.652,6.357,11.258,11.258,0,0,1-4.408,4.28A12.834,12.834,0,0,1,951.961,655.291Zm0-5.171a6.188,6.188,0,0,0,3.009-.762,5.793,5.793,0,0,0,2.288-2.374,7.924,7.924,0,0,0,.848-3.814,6.937,6.937,0,0,0-1.78-5.127,5.936,5.936,0,0,0-8.56,0,7.149,7.149,0,0,0-1.7,5.127,7.43,7.43,0,0,0,1.653,5.171A5.612,5.612,0,0,0,951.961,650.12Zm45.756-19.027a9.318,9.318,0,0,1,6.953,2.669,9.878,9.878,0,0,1,2.67,7.374v13.773h-5.94V641.941a5.8,5.8,0,0,0-1.39-4.2,5.007,5.007,0,0,0-3.819-1.483,5.127,5.127,0,0,0-3.856,1.483,5.785,5.785,0,0,0-1.4,4.2v12.968H985V641.941a5.789,5.789,0,0,0-1.4-4.2,4.991,4.991,0,0,0-3.814-1.483,5.182,5.182,0,0,0-3.9,1.483,5.79,5.79,0,0,0-1.4,4.2v12.968H968.56V631.432h5.933v2.839a7.936,7.936,0,0,1,2.925-2.331,9.323,9.323,0,0,1,3.983-.847,10.047,10.047,0,0,1,4.916,1.186,8.033,8.033,0,0,1,3.348,3.306,8.541,8.541,0,0,1,3.3-3.263A9.586,9.586,0,0,1,997.717,631.093Zm37.073,11.569a14.342,14.342,0,0,1-.17,2.288h-17.16a5.813,5.813,0,0,0,1.78,3.984,5.483,5.483,0,0,0,3.86,1.441,4.841,4.841,0,0,0,4.7-2.84h6.4a10.819,10.819,0,0,1-3.9,5.594,11.459,11.459,0,0,1-7.08,2.162,12.5,12.5,0,0,1-6.1-1.484,10.942,10.942,0,0,1-4.2-4.28,14.483,14.483,0,0,1,0-12.756,10.375,10.375,0,0,1,4.16-4.238,12.449,12.449,0,0,1,6.14-1.483,12.236,12.236,0,0,1,5.98,1.441,9.937,9.937,0,0,1,4.11,4.111A12.1,12.1,0,0,1,1034.79,642.662Zm-6.14-1.7a4.632,4.632,0,0,0-1.66-3.645,5.782,5.782,0,0,0-3.94-1.4,5.419,5.419,0,0,0-3.73,1.356,5.84,5.84,0,0,0-1.82,3.687Zm27.48-4.662v11.357a2.362,2.362,0,0,0,.55,1.738,2.966,2.966,0,0,0,1.95.509h2.75v5h-3.73q-7.5,0-7.5-7.289V636.3h-2.79v-4.873h2.79v-5.806h5.98v5.806h5.25V636.3Zm19.94,18.986a12.5,12.5,0,0,1-6.1-1.484,11.141,11.141,0,0,1-4.28-4.28,12.978,12.978,0,0,1-1.52-6.357,12.672,12.672,0,0,1,1.56-6.356,11.07,11.07,0,0,1,4.37-4.238,13.136,13.136,0,0,1,12.29,0,10.691,10.691,0,0,1,4.32,4.238,12.3,12.3,0,0,1,1.61,6.356,12.128,12.128,0,0,1-1.65,6.357,11.2,11.2,0,0,1-4.41,4.28A12.827,12.827,0,0,1,1076.07,655.291Zm0-5.171a6.17,6.17,0,0,0,3.01-.762,5.772,5.772,0,0,0,2.29-2.374,7.867,7.867,0,0,0,.85-3.814,6.924,6.924,0,0,0-1.78-5.127,5.936,5.936,0,0,0-8.56,0,7.15,7.15,0,0,0-1.7,5.127,7.442,7.442,0,0,0,1.66,5.171A5.6,5.6,0,0,0,1076.07,650.12Z" fill="#fff"/>
  </g>
</svg>
