<svg xmlns="http://www.w3.org/2000/svg" width="117.705" height="117.718" viewBox="0 0 117.705 117.718">
  <path id="Path_2469" data-name="Path 2469" d="M2844.912,394.412h-6.9a6.26,6.26,0,0,0-.888-.189,56.017,56.017,0,0,1-25.679-8.1c-15.249-9.343-24.633-22.814-27.927-40.437-.413-2.206-.616-4.451-.917-6.677v-6.9c.071-.407.153-.812.212-1.221.368-2.534.578-5.1,1.121-7.6a57.171,57.171,0,0,1,21.845-34.434c14.322-10.848,30.452-14.447,48.04-10.78a58.739,58.739,0,0,1,31.826,96.268A57.794,57.794,0,0,1,2851.6,393.5C2849.389,393.89,2847.143,394.11,2844.912,394.412ZM2832.3,345.272c-2.184-2-4.323-3.963-6.472-5.918-3.258-2.964-6.428-6.035-9.811-8.849a5.628,5.628,0,0,0-8.976,3.027,6.079,6.079,0,0,0,2.124,6.281q9.534,8.648,19.037,17.328c3,2.732,6.117,2.658,9.024-.225q18.276-18.13,36.545-36.268c.326-.324.648-.653.941-1.006a5.879,5.879,0,0,0-1.6-8.908c-2.524-1.457-5.245-.98-7.592,1.366q-16.138,16.124-32.268,32.257C2832.96,344.649,2832.655,344.929,2832.3,345.272Z" transform="translate(-2782.604 -276.693)" fill="#00aae5"/>
</svg>
